G04*
G04 #@! TF.GenerationSoftware,Altium Limited,Altium Designer,24.0.1 (36)*
G04*
G04 Layer_Physical_Order=2*
G04 Layer_Color=16711680*
%FSLAX44Y44*%
%MOMM*%
G71*
G04*
G04 #@! TF.SameCoordinates,B4139D88-366C-407F-81F0-E15026D8F30D*
G04*
G04*
G04 #@! TF.FilePolarity,Positive*
G04*
G01*
G75*
%ADD11C,0.2540*%
G04:AMPARAMS|DCode=25|XSize=1mm|YSize=0.9mm|CornerRadius=0.1125mm|HoleSize=0mm|Usage=FLASHONLY|Rotation=270.000|XOffset=0mm|YOffset=0mm|HoleType=Round|Shape=RoundedRectangle|*
%AMROUNDEDRECTD25*
21,1,1.0000,0.6750,0,0,270.0*
21,1,0.7750,0.9000,0,0,270.0*
1,1,0.2250,-0.3375,-0.3875*
1,1,0.2250,-0.3375,0.3875*
1,1,0.2250,0.3375,0.3875*
1,1,0.2250,0.3375,-0.3875*
%
%ADD25ROUNDEDRECTD25*%
G04:AMPARAMS|DCode=27|XSize=0.58mm|YSize=0.58mm|CornerRadius=0.1508mm|HoleSize=0mm|Usage=FLASHONLY|Rotation=270.000|XOffset=0mm|YOffset=0mm|HoleType=Round|Shape=RoundedRectangle|*
%AMROUNDEDRECTD27*
21,1,0.5800,0.2784,0,0,270.0*
21,1,0.2784,0.5800,0,0,270.0*
1,1,0.3016,-0.1392,-0.1392*
1,1,0.3016,-0.1392,0.1392*
1,1,0.3016,0.1392,0.1392*
1,1,0.3016,0.1392,-0.1392*
%
%ADD27ROUNDEDRECTD27*%
%ADD28R,0.7000X0.8500*%
%ADD58R,0.6000X1.7000*%
%ADD59R,1.0000X2.8000*%
%ADD65R,0.7620X0.7620*%
G04:AMPARAMS|DCode=67|XSize=0.56mm|YSize=0.51mm|CornerRadius=0mm|HoleSize=0mm|Usage=FLASHONLY|Rotation=45.000|XOffset=0mm|YOffset=0mm|HoleType=Round|Shape=Rectangle|*
%AMROTATEDRECTD67*
4,1,4,-0.0177,-0.3783,-0.3783,-0.0177,0.0177,0.3783,0.3783,0.0177,-0.0177,-0.3783,0.0*
%
%ADD67ROTATEDRECTD67*%

G04:AMPARAMS|DCode=68|XSize=0.89mm|YSize=0.64mm|CornerRadius=0mm|HoleSize=0mm|Usage=FLASHONLY|Rotation=135.000|XOffset=0mm|YOffset=0mm|HoleType=Round|Shape=Rectangle|*
%AMROTATEDRECTD68*
4,1,4,0.5409,-0.0884,0.0884,-0.5409,-0.5409,0.0884,-0.0884,0.5409,0.5409,-0.0884,0.0*
%
%ADD68ROTATEDRECTD68*%

%ADD69R,0.7620X0.7620*%
%ADD70R,1.0000X0.6400*%
G04:AMPARAMS|DCode=71|XSize=1mm|YSize=0.9mm|CornerRadius=0.1125mm|HoleSize=0mm|Usage=FLASHONLY|Rotation=180.000|XOffset=0mm|YOffset=0mm|HoleType=Round|Shape=RoundedRectangle|*
%AMROUNDEDRECTD71*
21,1,1.0000,0.6750,0,0,180.0*
21,1,0.7750,0.9000,0,0,180.0*
1,1,0.2250,-0.3875,0.3375*
1,1,0.2250,0.3875,0.3375*
1,1,0.2250,0.3875,-0.3375*
1,1,0.2250,-0.3875,-0.3375*
%
%ADD71ROUNDEDRECTD71*%
G04:AMPARAMS|DCode=72|XSize=0.56mm|YSize=0.51mm|CornerRadius=0mm|HoleSize=0mm|Usage=FLASHONLY|Rotation=135.000|XOffset=0mm|YOffset=0mm|HoleType=Round|Shape=Rectangle|*
%AMROTATEDRECTD72*
4,1,4,0.3783,-0.0177,0.0177,-0.3783,-0.3783,0.0177,-0.0177,0.3783,0.3783,-0.0177,0.0*
%
%ADD72ROTATEDRECTD72*%

%ADD74R,0.6400X0.8900*%
%ADD75R,0.5100X0.5600*%
%ADD76O,1.4500X0.6000*%
%ADD77R,0.8900X0.6400*%
%ADD130R,0.6000X0.5500*%
%ADD158C,3.8000*%
%ADD159O,1.2000X2.2000*%
%ADD160C,7.5000*%
%ADD161C,0.5000*%
%ADD162O,1.2000X2.0000*%
%ADD163C,4.0000*%
%ADD164O,1.8000X1.2000*%
%ADD165O,2.0000X1.1000*%
%ADD166C,0.7000*%
%ADD167C,3.5000*%
%ADD168R,0.9000X1.4000*%
%ADD169R,1.4500X1.2500*%
G04:AMPARAMS|DCode=170|XSize=2mm|YSize=4.1mm|CornerRadius=0.25mm|HoleSize=0mm|Usage=FLASHONLY|Rotation=180.000|XOffset=0mm|YOffset=0mm|HoleType=Round|Shape=RoundedRectangle|*
%AMROUNDEDRECTD170*
21,1,2.0000,3.6000,0,0,180.0*
21,1,1.5000,4.1000,0,0,180.0*
1,1,0.5000,-0.7500,1.8000*
1,1,0.5000,0.7500,1.8000*
1,1,0.5000,0.7500,-1.8000*
1,1,0.5000,-0.7500,-1.8000*
%
%ADD170ROUNDEDRECTD170*%
%ADD171R,1.1000X1.4000*%
%ADD172R,1.6000X3.2000*%
%ADD173R,0.9500X1.0000*%
%ADD174R,2.7430X2.1590*%
%ADD175R,0.3000X0.6500*%
%ADD176R,0.2540X0.2540*%
G04:AMPARAMS|DCode=177|XSize=1.4741mm|YSize=0.5849mm|CornerRadius=0.2925mm|HoleSize=0mm|Usage=FLASHONLY|Rotation=270.000|XOffset=0mm|YOffset=0mm|HoleType=Round|Shape=RoundedRectangle|*
%AMROUNDEDRECTD177*
21,1,1.4741,0.0000,0,0,270.0*
21,1,0.8892,0.5849,0,0,270.0*
1,1,0.5849,0.0000,-0.4446*
1,1,0.5849,0.0000,0.4446*
1,1,0.5849,0.0000,0.4446*
1,1,0.5849,0.0000,-0.4446*
%
%ADD177ROUNDEDRECTD177*%
%ADD178R,0.5849X1.4741*%
%ADD179R,3.5000X1.5000*%
G04:AMPARAMS|DCode=180|XSize=1mm|YSize=0.64mm|CornerRadius=0mm|HoleSize=0mm|Usage=FLASHONLY|Rotation=135.000|XOffset=0mm|YOffset=0mm|HoleType=Round|Shape=Rectangle|*
%AMROTATEDRECTD180*
4,1,4,0.5798,-0.1273,0.1273,-0.5798,-0.5798,0.1273,-0.1273,0.5798,0.5798,-0.1273,0.0*
%
%ADD180ROTATEDRECTD180*%

%ADD181C,0.2540*%
%ADD182R,3.5000X1.6500*%
%ADD183R,1.5000X1.6500*%
%ADD184R,0.8000X0.5500*%
%ADD185R,2.6000X0.3000*%
%ADD186R,0.4250X0.3300*%
%ADD187R,0.6400X1.0000*%
%ADD188R,3.2000X1.6000*%
G04:AMPARAMS|DCode=189|XSize=0.89mm|YSize=0.64mm|CornerRadius=0mm|HoleSize=0mm|Usage=FLASHONLY|Rotation=45.000|XOffset=0mm|YOffset=0mm|HoleType=Round|Shape=Rectangle|*
%AMROTATEDRECTD189*
4,1,4,-0.0884,-0.5409,-0.5409,-0.0884,0.0884,0.5409,0.5409,0.0884,-0.0884,-0.5409,0.0*
%
%ADD189ROTATEDRECTD189*%

%ADD190R,0.5600X0.5100*%
%ADD191R,1.4000X0.9000*%
G36*
X203770Y506810D02*
X190270D01*
X195270Y511810D01*
X190270Y516810D01*
X203770D01*
X203770Y506810D01*
D02*
G37*
G36*
X192770Y511810D02*
X187770Y506810D01*
X179770D01*
X179770Y516810D01*
X187770D01*
X192770Y511810D01*
D02*
G37*
G36*
X559990Y489990D02*
X554990Y494990D01*
X549990Y489990D01*
Y503490D01*
X559990D01*
Y489990D01*
D02*
G37*
G36*
X609170Y487760D02*
X595670D01*
X600670Y492760D01*
X595670Y497760D01*
X609170D01*
Y487760D01*
D02*
G37*
G36*
X598170Y492760D02*
X593170Y487760D01*
X585170D01*
Y497760D01*
X593170D01*
X598170Y492760D01*
D02*
G37*
G36*
X200580Y487870D02*
X195580Y482870D01*
X190580Y487870D01*
Y495870D01*
X200580D01*
Y487870D01*
D02*
G37*
G36*
X200580Y471870D02*
X190580D01*
Y485370D01*
X195580Y480370D01*
X200580Y485370D01*
X200580Y471870D01*
D02*
G37*
G36*
X559990Y487490D02*
Y479490D01*
X549990D01*
Y487490D01*
X554990Y492490D01*
X559990Y487490D01*
D02*
G37*
G36*
X609170Y466170D02*
X595670D01*
X600670Y471170D01*
X595670Y476170D01*
X609170D01*
Y466170D01*
D02*
G37*
G36*
X598170Y471170D02*
X593170Y466170D01*
X585170D01*
Y476170D01*
X593170D01*
X598170Y471170D01*
D02*
G37*
G36*
X416814Y177800D02*
X413766D01*
Y180340D01*
X416814D01*
Y177800D01*
D02*
G37*
G36*
X218694Y165100D02*
X215646D01*
X215646Y167640D01*
X218694D01*
X218694Y165100D01*
D02*
G37*
G36*
X221234Y133350D02*
X218186Y133350D01*
Y135890D01*
X221234D01*
X221234Y133350D01*
D02*
G37*
G36*
X416814Y125730D02*
X413766D01*
Y128270D01*
X416814D01*
Y125730D01*
D02*
G37*
G36*
X1151190Y426800D02*
X1143190D01*
X1138190Y431800D01*
X1143190Y436800D01*
X1151190D01*
Y426800D01*
D02*
G37*
G36*
X1135690Y431800D02*
X1140690Y426800D01*
X1127190Y426800D01*
Y436800D01*
X1140690Y436800D01*
X1135690Y431800D01*
D02*
G37*
G36*
X842601Y420240D02*
X833055Y410694D01*
Y417765D01*
X825984D01*
X835530Y427311D01*
X842601Y420240D01*
D02*
G37*
G36*
X831287Y408926D02*
X825630Y403269D01*
X818559Y410340D01*
X824216Y415997D01*
X831287D01*
Y408926D01*
D02*
G37*
G36*
X967061Y370710D02*
X961404Y365053D01*
X954333D01*
Y372124D01*
X959990Y377781D01*
X967061Y370710D01*
D02*
G37*
G36*
X952565Y363285D02*
X959636D01*
X950090Y353739D01*
X943019Y360810D01*
X952565Y370356D01*
Y363285D01*
D02*
G37*
G36*
X716871Y346580D02*
X711214Y340923D01*
X704143D01*
Y347994D01*
X709800Y353651D01*
X716871Y346580D01*
D02*
G37*
G36*
X1010140Y332820D02*
X996640D01*
X1001640Y337820D01*
X996640Y342820D01*
X1010140D01*
Y332820D01*
D02*
G37*
G36*
X999140Y337820D02*
X994140Y332820D01*
X986140D01*
Y342820D01*
X994140D01*
X999140Y337820D01*
D02*
G37*
G36*
X702375Y339155D02*
X709446D01*
X699900Y329609D01*
X692829Y336680D01*
X702375Y346226D01*
Y339155D01*
D02*
G37*
G36*
X1429004Y201930D02*
X1425956D01*
Y204470D01*
X1429004D01*
Y201930D01*
D02*
G37*
G36*
X1206754Y196850D02*
X1203706D01*
Y199390D01*
X1206754D01*
Y196850D01*
D02*
G37*
G36*
X1431544Y161290D02*
X1428496D01*
Y163830D01*
X1431544D01*
Y161290D01*
D02*
G37*
G36*
X1209294Y139700D02*
X1206246D01*
Y142240D01*
X1209294D01*
Y139700D01*
D02*
G37*
D11*
X62799Y444648D02*
G03*
X62799Y444648I-3500J0D01*
G01*
X62799Y502449D02*
G03*
X62799Y502449I-3500J0D01*
G01*
D25*
X1086730Y434340D02*
D03*
X1069730D02*
D03*
X1087510Y450850D02*
D03*
X1104510Y450850D02*
D03*
X1098060Y369570D02*
D03*
X1115060Y369570D02*
D03*
D27*
X1182370Y522450D02*
D03*
X1182370Y531650D02*
D03*
X1196340Y522450D02*
D03*
X1196340Y531650D02*
D03*
X1209040Y522450D02*
D03*
X1209040Y531650D02*
D03*
X1221740Y522450D02*
D03*
X1221740Y531650D02*
D03*
X379730Y522450D02*
D03*
X379730Y531650D02*
D03*
X392430Y522450D02*
D03*
Y531650D02*
D03*
X354330Y522450D02*
D03*
Y531650D02*
D03*
X367030Y522450D02*
D03*
Y531650D02*
D03*
D28*
X1141880Y369570D02*
D03*
X1128880D02*
D03*
D58*
X1043750Y550499D02*
D03*
X1056250D02*
D03*
X385001Y549249D02*
D03*
X334999D02*
D03*
X347498D02*
D03*
X359997D02*
D03*
X372499D02*
D03*
X658750D02*
D03*
X646248D02*
D03*
X633749D02*
D03*
X621250D02*
D03*
X1202499D02*
D03*
X1189997D02*
D03*
X1177498D02*
D03*
X1164999D02*
D03*
X1215001D02*
D03*
D59*
X1025251Y579498D02*
D03*
X1074751D02*
D03*
X316500Y580751D02*
D03*
X403500D02*
D03*
X602751D02*
D03*
X677249D02*
D03*
X1233500D02*
D03*
X1146500D02*
D03*
D65*
X568960Y225425D02*
D03*
Y211455D02*
D03*
X279400Y470535D02*
D03*
Y456565D02*
D03*
X307340Y470535D02*
D03*
Y456565D02*
D03*
X1446530Y492760D02*
D03*
Y478790D02*
D03*
X1385570Y494665D02*
D03*
Y480695D02*
D03*
X1276350Y313055D02*
D03*
Y327025D02*
D03*
X1380620Y450470D02*
D03*
X1380620Y436500D02*
D03*
X1406020Y449835D02*
D03*
Y435865D02*
D03*
X1435230Y448565D02*
D03*
Y434595D02*
D03*
X1458090Y448565D02*
D03*
Y434595D02*
D03*
X372110Y211455D02*
D03*
Y225425D02*
D03*
X40640Y212725D02*
D03*
Y226695D02*
D03*
X170180Y212725D02*
D03*
Y226695D02*
D03*
X994410Y213995D02*
D03*
Y227965D02*
D03*
X869950Y215265D02*
D03*
Y229235D02*
D03*
X242570Y211455D02*
D03*
Y225425D02*
D03*
X1196340Y213995D02*
D03*
Y227965D02*
D03*
X1061720Y215265D02*
D03*
Y229235D02*
D03*
X434340Y212725D02*
D03*
Y226695D02*
D03*
X1263650Y213995D02*
D03*
Y227965D02*
D03*
X1393190Y215265D02*
D03*
Y229235D02*
D03*
X1325880Y447040D02*
D03*
Y433070D02*
D03*
X443230Y483235D02*
D03*
Y469265D02*
D03*
X397510D02*
D03*
Y483235D02*
D03*
X412750Y469265D02*
D03*
Y483235D02*
D03*
X427990Y469265D02*
D03*
Y483235D02*
D03*
X443230Y446405D02*
D03*
Y432435D02*
D03*
D67*
X930268Y445142D02*
D03*
X936632Y438778D02*
D03*
D68*
X977770Y355470D02*
D03*
X967870Y345570D02*
D03*
X806320Y492630D02*
D03*
X796420Y482730D02*
D03*
X846960Y408810D02*
D03*
X837060Y398910D02*
D03*
D69*
X216535Y461010D02*
D03*
X202565D02*
D03*
X356235Y454660D02*
D03*
X370205D02*
D03*
X177165Y575310D02*
D03*
X163195D02*
D03*
X257175D02*
D03*
X243205D02*
D03*
D70*
X538480Y498490D02*
D03*
Y484490D02*
D03*
D71*
X998220Y559680D02*
D03*
Y542680D02*
D03*
X1097280D02*
D03*
Y559680D02*
D03*
X1116330Y559680D02*
D03*
Y542680D02*
D03*
X443230Y545710D02*
D03*
Y528710D02*
D03*
X422910Y545710D02*
D03*
Y528710D02*
D03*
D72*
X1002672Y476892D02*
D03*
X996308Y470528D02*
D03*
X781692Y339732D02*
D03*
X775328Y333368D02*
D03*
X795648Y353688D02*
D03*
X802012Y360052D02*
D03*
X788028Y494658D02*
D03*
X794392Y501022D02*
D03*
D74*
X1068720Y396240D02*
D03*
X1054720D02*
D03*
X1005220Y354330D02*
D03*
X991220D02*
D03*
D75*
X987108Y579492D02*
D03*
X978108D02*
D03*
X1045790Y384810D02*
D03*
X1054790D02*
D03*
X764402Y582340D02*
D03*
X773402D02*
D03*
D76*
X913820Y532130D02*
D03*
X968320D02*
D03*
X913820Y570230D02*
D03*
X913820Y544830D02*
D03*
X913820Y557530D02*
D03*
X968320Y544830D02*
D03*
Y557530D02*
D03*
Y570230D02*
D03*
D77*
X156210Y508620D02*
D03*
X156210Y522620D02*
D03*
D130*
X1043940Y530860D02*
D03*
X1056940D02*
D03*
X1050440Y512360D02*
D03*
X500380Y582020D02*
D03*
X493880Y563520D02*
D03*
X506880D02*
D03*
D158*
X464190Y77780D02*
D03*
X536189Y77780D02*
D03*
X1050539Y82860D02*
D03*
X978540D02*
D03*
D159*
X432689Y17780D02*
D03*
X567690D02*
D03*
X1082040Y22860D02*
D03*
X947039D02*
D03*
D160*
X700000Y45000D02*
D03*
X800000Y45000D02*
D03*
D161*
X728080Y440170D02*
D03*
X771920Y396330D02*
D03*
D162*
X178253Y17780D02*
D03*
X349251D02*
D03*
X1336449Y15720D02*
D03*
X1165451D02*
D03*
D163*
X208754Y77780D02*
D03*
X263752D02*
D03*
X318753Y77780D02*
D03*
X1195951Y75720D02*
D03*
X1250950D02*
D03*
X1305951D02*
D03*
D164*
X22499Y430300D02*
D03*
Y516800D02*
D03*
D165*
X64501Y430300D02*
D03*
X64501Y516800D02*
D03*
D166*
X680201Y64799D02*
D03*
X700000Y73000D02*
D03*
X672000Y45000D02*
D03*
X719799Y64799D02*
D03*
X728000Y45000D02*
D03*
X680201Y25201D02*
D03*
X700000Y17000D02*
D03*
X719799Y25201D02*
D03*
X819799D02*
D03*
X800000Y17000D02*
D03*
X780201Y25201D02*
D03*
X828000Y45000D02*
D03*
X819799Y64799D02*
D03*
X772000Y45000D02*
D03*
X800000Y73000D02*
D03*
X780201Y64799D02*
D03*
D167*
X850000Y300000D02*
D03*
X40000Y560000D02*
D03*
X1460000D02*
D03*
X1420000Y80000D02*
D03*
Y300000D02*
D03*
X850000Y80000D02*
D03*
X650000D02*
D03*
Y300000D02*
D03*
X80000Y80000D02*
D03*
Y300000D02*
D03*
X1460000Y40000D02*
D03*
X40000D02*
D03*
D168*
X134230Y448310D02*
D03*
X117230D02*
D03*
D169*
X260350Y496180D02*
D03*
Y479180D02*
D03*
D170*
X930910Y141920D02*
D03*
Y228920D02*
D03*
X1127760Y141920D02*
D03*
Y228920D02*
D03*
X680720Y231460D02*
D03*
Y144460D02*
D03*
X793750Y230190D02*
D03*
Y143190D02*
D03*
X1328420Y234000D02*
D03*
X1328420Y147000D02*
D03*
X102870Y239080D02*
D03*
Y152080D02*
D03*
X496570Y234000D02*
D03*
Y147000D02*
D03*
X304800Y234000D02*
D03*
Y147000D02*
D03*
D171*
X365880Y476250D02*
D03*
X380880D02*
D03*
X1253250D02*
D03*
X1238250D02*
D03*
D172*
X184150Y442830D02*
D03*
Y392830D02*
D03*
D173*
X434340Y165480D02*
D03*
Y149480D02*
D03*
X238760D02*
D03*
Y165480D02*
D03*
X1197610Y181990D02*
D03*
Y165990D02*
D03*
X1418590Y192150D02*
D03*
Y176150D02*
D03*
D174*
X257810Y431040D02*
D03*
Y386840D02*
D03*
X1344930Y366520D02*
D03*
Y410720D02*
D03*
D175*
X588010Y226460D02*
D03*
Y212960D02*
D03*
X393700Y210420D02*
D03*
Y223920D02*
D03*
X22860Y212960D02*
D03*
Y226460D02*
D03*
X189230Y212960D02*
D03*
Y226460D02*
D03*
X1016000Y225190D02*
D03*
Y211690D02*
D03*
X855980Y229000D02*
D03*
Y215500D02*
D03*
X220980Y211690D02*
D03*
Y225190D02*
D03*
X1212850Y227730D02*
D03*
Y214230D02*
D03*
X1040130Y227730D02*
D03*
Y214230D02*
D03*
X414020Y211690D02*
D03*
Y225190D02*
D03*
X1238250Y229000D02*
D03*
Y215500D02*
D03*
X1413510Y229000D02*
D03*
Y215500D02*
D03*
D176*
X417830Y127000D02*
D03*
X412750D02*
D03*
X417830Y179070D02*
D03*
X412750D02*
D03*
X214630Y166370D02*
D03*
X219710D02*
D03*
X217170Y134620D02*
D03*
X222250D02*
D03*
X1205230Y140970D02*
D03*
X1210310D02*
D03*
X1202690Y198120D02*
D03*
X1207770D02*
D03*
X1424940Y203200D02*
D03*
X1430020D02*
D03*
X1427480Y162560D02*
D03*
X1432560D02*
D03*
D177*
X1108050Y410672D02*
D03*
X1098550Y391968D02*
D03*
D178*
X1089050Y410672D02*
D03*
D179*
X383540Y180380D02*
D03*
Y119380D02*
D03*
X191770Y125690D02*
D03*
Y186690D02*
D03*
X1234440Y201950D02*
D03*
Y140950D02*
D03*
X1456690Y214650D02*
D03*
Y153650D02*
D03*
D180*
X948560Y382140D02*
D03*
X938660Y372240D02*
D03*
X711330Y326520D02*
D03*
X721230Y336420D02*
D03*
D181*
X950797Y361517D02*
D03*
X958576Y369296D02*
D03*
X1144190Y431800D02*
D03*
X1133190D02*
D03*
X993140Y337820D02*
D03*
X1004140D02*
D03*
X592170Y492760D02*
D03*
X603170D02*
D03*
X592170Y471170D02*
D03*
X603170D02*
D03*
X554990Y486490D02*
D03*
Y497490D02*
D03*
X708385Y345165D02*
D03*
X700607Y337387D02*
D03*
X195580Y488870D02*
D03*
X195580Y477870D02*
D03*
X186770Y511810D02*
D03*
X197770D02*
D03*
X827045Y411754D02*
D03*
X834823Y419533D02*
D03*
D182*
X114300Y529590D02*
D03*
D183*
X91300Y466090D02*
D03*
X114300D02*
D03*
X137300Y466090D02*
D03*
D184*
X46990Y509170D02*
D03*
Y496670D02*
D03*
D185*
X1134110Y416400D02*
D03*
Y411400D02*
D03*
Y406400D02*
D03*
Y401400D02*
D03*
Y396400D02*
D03*
Y391400D02*
D03*
Y386400D02*
D03*
Y381400D02*
D03*
D186*
X980381Y591166D02*
D03*
X986631D02*
D03*
X647115Y533400D02*
D03*
X653365D02*
D03*
X631775D02*
D03*
X625525D02*
D03*
X772745Y591820D02*
D03*
X766495D02*
D03*
D187*
X109870Y571500D02*
D03*
X95870D02*
D03*
X47640Y482600D02*
D03*
X33640D02*
D03*
X47640Y461010D02*
D03*
X33640D02*
D03*
D188*
X1441050Y364490D02*
D03*
X1391050D02*
D03*
D189*
X828170Y391030D02*
D03*
X838070Y381130D02*
D03*
D190*
X170180Y520120D02*
D03*
Y511120D02*
D03*
X29210Y504880D02*
D03*
Y495880D02*
D03*
D191*
X91440Y433950D02*
D03*
Y416950D02*
D03*
M02*
